<svg width="42" height="42" viewBox="0 0 42 42" fill="none" xmlns="http://www.w3.org/2000/svg">
<circle cx="21" cy="21" r="21" fill="#D704EA"/>
<path d="M31.1538 10.6667H27.7692V9.83333C27.7692 9.37314 27.3903 9 26.9231 9H15.0769C14.6096 9 14.2308 9.37314 14.2308 9.83333V10.6667H10.8462C10.3789 10.6667 10 11.0398 10 11.5V16.5C10 18.7972 11.8982 20.6667 14.2308 20.6667H15.7408C16.4579 21.5482 17.39 22.2517 18.4615 22.6804V25.6695C17.6337 26.2805 17.0684 27.1743 16.8612 28.1667H14.2308C13.7635 28.1667 13.3846 28.5398 13.3846 29V33.1667C13.3846 33.6269 13.7635 34 14.2308 34H27.7692C28.2365 34 28.6154 33.6269 28.6154 33.1667V29C28.6154 28.5398 28.2365 28.1667 27.7692 28.1667H25.1361C24.9722 27.3774 24.5841 26.643 23.9804 26.0402C23.8363 25.9042 23.6888 25.7801 23.5383 25.6695V22.6812C24.6196 22.2489 25.5381 21.5389 26.2501 20.6667H27.7692C30.1018 20.6667 32 18.7972 32 16.5V11.5C32 11.0398 31.6211 10.6667 31.1538 10.6667ZM14.2308 19C12.831 19 11.6923 17.8785 11.6923 16.5V12.3333H14.2308V16.5C14.2308 16.8052 14.2591 17.1066 14.3005 17.405C14.3097 17.4714 14.3186 17.5374 14.3297 17.6034C14.379 17.893 14.444 18.1788 14.5315 18.4581C14.5454 18.503 14.5637 18.5461 14.5787 18.5906C14.6248 18.7279 14.6691 18.8659 14.7245 19L14.2308 19ZM26.9231 32.3333H15.0769V29.8333H24.3846C24.3903 29.833 24.3954 29.8333 24.4016 29.8333H26.923L26.9231 32.3333ZM22.4509 21.2929C22.0919 21.3978 21.8461 21.7229 21.8461 22.0916V26.1165C21.8461 26.4169 22.0101 26.6935 22.2749 26.8416C22.4517 26.9402 22.6315 27.0752 22.7922 27.2264C23.0649 27.4989 23.2682 27.8192 23.393 28.1663H18.6077C18.807 27.6142 19.2002 27.1384 19.7294 26.839C19.9919 26.6903 20.1538 26.4148 20.1538 26.1165V22.0916C20.1538 21.7238 19.9088 21.3994 19.5515 21.2936C18.4471 20.9664 17.4841 20.28 16.8363 19.3555C16.7401 19.2201 16.6636 19.0752 16.5822 18.9327C16.5292 18.8397 16.47 18.7499 16.4234 18.6541C16.3588 18.5218 16.3097 18.3838 16.2576 18.2469C16.2217 18.153 16.1784 18.0618 16.1484 17.9658C16.0997 17.8098 16.0687 17.6491 16.0358 17.4887C16.019 17.407 15.9933 17.3276 15.9807 17.245C15.9431 17 15.9231 16.7512 15.9231 16.4999V10.6665H26.0769V16.4999C26.0769 16.7692 26.0533 17.0348 26.01 17.2952C26.0023 17.3431 25.9859 17.3886 25.9766 17.4362C25.9345 17.6498 25.8854 17.8613 25.8161 18.0657C25.8002 18.113 25.777 18.1576 25.7596 18.2043C25.6857 18.4022 25.6047 18.5973 25.5067 18.7839C25.4759 18.8423 25.4374 18.8972 25.4041 18.9547C24.7695 20.0548 23.7302 20.918 22.4509 21.2929ZM30.3076 16.5C30.3076 17.8785 29.1688 19 27.7691 19H27.275C27.4646 18.5409 27.594 18.0614 27.6749 17.5709C27.6834 17.5203 27.69 17.4697 27.6973 17.4187C27.74 17.1159 27.7691 16.8101 27.7691 16.5V12.3333H30.3076L30.3076 16.5Z" fill="white"/>
</svg>
