<svg width="42" height="42" viewBox="0 0 42 42" fill="none" xmlns="http://www.w3.org/2000/svg">
<circle cx="21" cy="21" r="21" fill="#045ABF"/>
<path fill-rule="evenodd" clip-rule="evenodd" d="M22.3125 10.4838C22.1501 10.1855 21.8381 10 21.4992 10C21.1602 10 20.8481 10.1855 20.6858 10.4838L17.4331 16.4581L10.7559 17.7103C10.4226 17.7729 10.1501 18.0127 10.0454 18.3356C9.94062 18.6586 10.0203 19.0132 10.2534 19.2598L14.9207 24.2042L14.0464 30.9528C14.0028 31.2895 14.1463 31.6232 14.4206 31.8229C14.695 32.0224 15.0563 32.056 15.3625 31.9103L21.5 28.9919L27.6375 31.9103C27.9437 32.056 28.305 32.0224 28.5794 31.8229C28.8537 31.6232 28.9972 31.2895 28.9536 30.9528L28.0793 24.2042L32.7466 19.2598C32.9797 19.013 33.0594 18.6585 32.9546 18.3356C32.8499 18.0125 32.5774 17.7727 32.2441 17.7103L25.5669 16.4581L22.3142 10.4838H22.3125ZM21.4992 12.8661L24.1492 17.7334C24.2824 17.9782 24.5184 18.1499 24.792 18.2012L30.2319 19.2213L26.4297 23.2495C26.2385 23.452 26.1482 23.7299 26.1841 24.0064L26.8963 29.5041L21.8965 27.1264C21.645 27.0069 21.3534 27.0069 21.1018 27.1264L16.102 29.5041L16.8143 24.0064C16.85 23.7301 16.7599 23.4522 16.5687 23.2495L12.7665 19.2213L18.2064 18.2012C18.4799 18.1499 18.716 17.9782 18.8492 17.7334L21.4992 12.8661H21.4992Z" fill="white"/>
</svg>
