<svg width="42" height="42" viewBox="0 0 42 42" fill="none" xmlns="http://www.w3.org/2000/svg">
<circle cx="21" cy="21" r="21" fill="#C1B228"/>
<path d="M16.6638 17.747C16.9511 17.747 17.2266 17.8611 17.4296 18.0641C17.6328 18.2673 17.7469 18.5426 17.7469 18.8299C17.7469 19.2169 17.9533 19.5744 18.2884 19.7678C18.6234 19.9613 19.0362 19.9613 19.3712 19.7678C19.7065 19.5744 19.9129 19.2168 19.9129 18.8299C19.9129 17.6692 19.2936 16.5967 18.2883 16.0163C17.283 15.436 16.0445 15.436 15.0394 16.0163C14.0341 16.5967 13.4148 17.6692 13.4148 18.8299C13.4148 19.2169 13.6212 19.5744 13.9563 19.7678C14.2915 19.9613 14.7044 19.9613 15.0394 19.7678C15.3744 19.5744 15.5808 19.2168 15.5808 18.8299C15.5808 18.5427 15.6949 18.2673 15.8981 18.0641C16.1011 17.8611 16.3766 17.747 16.6637 17.747H16.6638Z" fill="white"/>
<path d="M25.3277 15.5811C24.4659 15.5811 23.6395 15.9233 23.0302 16.5327C22.4209 17.142 22.0785 17.9684 22.0785 18.83C22.0785 19.217 22.285 19.5745 22.6202 19.7679C22.9552 19.9614 23.3681 19.9614 23.7031 19.7679C24.0381 19.5745 24.2445 19.2169 24.2445 18.83C24.2445 18.443 24.4509 18.0856 24.7859 17.8922C25.1212 17.6988 25.534 17.6988 25.869 17.8922C26.2041 18.0856 26.4105 18.4431 26.4105 18.83C26.4105 19.217 26.6169 19.5745 26.9519 19.7679C27.287 19.9614 27.6998 19.9614 28.035 19.7679C28.37 19.5745 28.5764 19.2169 28.5764 18.83C28.5764 17.9685 28.234 17.142 27.6248 16.5327C27.0155 15.9233 26.1891 15.5811 25.3275 15.5811H25.3277Z" fill="white"/>
<path d="M20.9958 8.0001C17.5492 8.0001 14.2436 9.3693 11.8064 11.8065C9.3692 14.2437 8 17.5492 8 20.9959C8 24.4426 9.3692 27.7481 11.8064 30.1853C14.2436 32.6225 17.5491 33.9917 20.9958 33.9917C24.4425 33.9917 27.748 32.6225 30.1852 30.1853C32.6224 27.7481 33.9916 24.4426 33.9916 20.9959C33.988 17.5504 32.6177 14.2471 30.1813 11.8104C27.7448 9.37365 24.4414 8.00358 20.9957 8L20.9958 8.0001ZM20.9958 31.8258C18.1235 31.8258 15.3691 30.6847 13.3381 28.6537C11.307 26.6228 10.166 23.8683 10.166 20.996C10.166 18.1236 11.3071 15.3693 13.3381 13.3382C15.369 11.3071 18.1235 10.1662 20.9958 10.1662C23.8681 10.1662 26.6225 11.3073 28.6536 13.3382C30.6847 15.3691 31.8256 18.1236 31.8256 20.996C31.8256 22.897 31.3251 24.7646 30.3746 26.4109C29.4241 28.0572 28.0569 29.4243 26.4107 30.3748C24.7644 31.3253 22.8968 31.8258 20.9958 31.8258L20.9958 31.8258Z" fill="white"/>
<path d="M24.5614 23.4786L23.9278 24.1149C23.1372 24.868 22.0874 25.2881 20.9956 25.2881C19.9038 25.2881 18.854 24.868 18.0634 24.1149L17.4298 23.4786C17.1562 23.2049 16.7571 23.0981 16.3832 23.1981C16.0093 23.2984 15.7173 23.5904 15.617 23.9644C15.5169 24.3383 15.6238 24.7373 15.8975 25.011L16.5337 25.6446C17.7173 26.8318 19.3248 27.4988 21.0011 27.4988C22.6774 27.4988 24.2848 26.8318 25.4683 25.6446L26.1046 25.011C26.3782 24.7373 26.4853 24.3383 26.385 23.9644C26.2848 23.5904 25.9928 23.2985 25.6188 23.1981C25.2449 23.0981 24.8458 23.2049 24.5722 23.4786H24.5614Z" fill="white"/>
</svg>
